<svg width="1680" height="630" viewBox="0 0 1680 630" fill="none" xmlns="http://www.w3.org/2000/svg" role="img" aria-labelledby="title desc">
  <title id="title">Scan Config page</title>
  <desc id="desc">Dark Skill Manager page for saved LLM scan configurations, with provider, base URL, masked API key, active state, edit, and delete actions.</desc>
  <rect width="1680" height="630" fill="#070A0A"/>
  <g font-family="Inter, ui-sans-serif, system-ui, -apple-system, BlinkMacSystemFont, 'Segoe UI', sans-serif">
    <text x="274" y="64" fill="#F1F0EC" font-size="34" font-weight="700">Scan Config</text>
    <text x="274" y="105" fill="#8E8982" font-size="19" font-weight="500">View and manage all saved LLM configurations for security scans.</text>
    <g transform="translate(1344 38)">
      <rect width="170" height="34" rx="17" stroke="#245172"/>
      <text x="33" y="23" fill="#4B9DD1" font-size="15" font-weight="700">New configuration</text>
      <path d="M22 12V22M17 17H27" stroke="#4B9DD1" stroke-width="1.7" stroke-linecap="round"/>
    </g>
    <g transform="translate(274 168)">
      <rect width="1242" height="286" rx="18" fill="#1B1C21" stroke="#292A2E"/>
      <rect x="1" y="1" width="1240" height="45" rx="17" fill="#1C1D22"/>
      <text x="14" y="29" fill="#8F8A83" font-size="15" font-weight="700">Name</text>
      <text x="218" y="29" fill="#8F8A83" font-size="15" font-weight="700">Model</text>
      <text x="436" y="29" fill="#8F8A83" font-size="15" font-weight="700">Provider</text>
      <text x="568" y="29" fill="#8F8A83" font-size="15" font-weight="700">Base URL</text>
      <text x="812" y="29" fill="#8F8A83" font-size="15" font-weight="700">API Key</text>
      <g transform="translate(0 46)">
        <rect width="1242" height="52" fill="#20272C"/>
        <text x="14" y="32" fill="#D8D5CF" font-size="15" font-weight="700">skill5</text>
        <text x="218" y="32" fill="#8F8A83" font-size="15" font-family="SFMono-Regular, ui-monospace, monospace">deepseek/deepseek-v4-f...</text>
        <text x="436" y="32" fill="#D8D5CF" font-size="15">openrouter</text>
        <text x="568" y="32" fill="#8F8A83" font-size="15" font-family="SFMono-Regular, ui-monospace, monospace">https://openrouter.ai/ap...</text>
        <text x="812" y="32" fill="#8F8A83" font-size="15" font-family="SFMono-Regular, ui-monospace, monospace">sk-o...047b</text>
        <rect x="982" y="14" width="108" height="26" rx="13" fill="#1E303B" stroke="#2F6E96"/>
        <text x="1017" y="32" fill="#4B9DD1" font-size="13" font-weight="700">Active</text>
        <rect x="1097" y="14" width="58" height="26" rx="13" stroke="#2A2D32"/>
        <text x="1117" y="32" fill="#8F8A83" font-size="13" font-weight="700">Edit</text>
        <rect x="1161" y="14" width="69" height="26" rx="13" stroke="#885349"/>
        <text x="1183" y="32" fill="#F27C68" font-size="13" font-weight="700">Delete</text>
      </g>
      <g transform="translate(0 98)">
        <line x1="0" y1="0" x2="1242" y2="0" stroke="#292B30"/>
        <text x="14" y="32" fill="#D8D5CF" font-size="15" font-weight="700">skill-manager</text>
        <text x="218" y="32" fill="#8F8A83" font-size="15" font-family="SFMono-Regular, ui-monospace, monospace">qwen-plus</text>
        <text x="436" y="25" fill="#D8D5CF" font-size="15">openai-</text>
        <text x="436" y="45" fill="#D8D5CF" font-size="15">compatible</text>
        <text x="568" y="32" fill="#8F8A83" font-size="15" font-family="SFMono-Regular, ui-monospace, monospace">https://dashscope.aliyun...</text>
        <text x="812" y="32" fill="#8F8A83" font-size="15" font-family="SFMono-Regular, ui-monospace, monospace">sk-e...7835</text>
        <rect x="982" y="14" width="108" height="26" rx="13" stroke="#2A2D32"/>
        <text x="1008" y="32" fill="#8F8A83" font-size="13" font-weight="700">Make active</text>
        <rect x="1097" y="14" width="58" height="26" rx="13" stroke="#2A2D32"/>
        <text x="1117" y="32" fill="#8F8A83" font-size="13" font-weight="700">Edit</text>
        <rect x="1161" y="14" width="69" height="26" rx="13" stroke="#885349"/>
        <text x="1183" y="32" fill="#F27C68" font-size="13" font-weight="700">Delete</text>
      </g>
      <g transform="translate(0 150)">
        <line x1="0" y1="0" x2="1242" y2="0" stroke="#292B30"/>
        <text x="14" y="32" fill="#D8D5CF" font-size="15" font-weight="700">skill4</text>
        <text x="218" y="32" fill="#8F8A83" font-size="15" font-family="SFMono-Regular, ui-monospace, monospace">openai/gpt-oss-120b:fr...</text>
        <text x="436" y="32" fill="#D8D5CF" font-size="15">openrouter</text>
        <text x="568" y="32" fill="#8F8A83" font-size="15" font-family="SFMono-Regular, ui-monospace, monospace">https://openrouter.ai/ap...</text>
        <text x="812" y="32" fill="#8F8A83" font-size="15" font-family="SFMono-Regular, ui-monospace, monospace">sk-o...2baf</text>
        <rect x="982" y="14" width="108" height="26" rx="13" stroke="#2A2D32"/>
        <text x="1008" y="32" fill="#8F8A83" font-size="13" font-weight="700">Make active</text>
        <rect x="1097" y="14" width="58" height="26" rx="13" stroke="#2A2D32"/>
        <text x="1117" y="32" fill="#8F8A83" font-size="13" font-weight="700">Edit</text>
        <rect x="1161" y="14" width="69" height="26" rx="13" stroke="#885349"/>
        <text x="1183" y="32" fill="#F27C68" font-size="13" font-weight="700">Delete</text>
      </g>
      <g transform="translate(0 202)">
        <line x1="0" y1="0" x2="1242" y2="0" stroke="#292B30"/>
        <text x="14" y="32" fill="#D8D5CF" font-size="15" font-weight="700">skill6</text>
        <text x="218" y="32" fill="#8F8A83" font-size="15" font-family="SFMono-Regular, ui-monospace, monospace">deepseek-v4-pro</text>
        <text x="436" y="25" fill="#D8D5CF" font-size="15">openai-</text>
        <text x="436" y="45" fill="#D8D5CF" font-size="15">compatible</text>
        <text x="568" y="32" fill="#8F8A83" font-size="15" font-family="SFMono-Regular, ui-monospace, monospace">https://dashscope.aliyun...</text>
        <text x="812" y="32" fill="#8F8A83" font-size="15" font-family="SFMono-Regular, ui-monospace, monospace">sk-2...2d98</text>
        <rect x="982" y="14" width="108" height="26" rx="13" stroke="#2A2D32"/>
        <text x="1008" y="32" fill="#8F8A83" font-size="13" font-weight="700">Make active</text>
        <rect x="1097" y="14" width="58" height="26" rx="13" stroke="#2A2D32"/>
        <text x="1117" y="32" fill="#8F8A83" font-size="13" font-weight="700">Edit</text>
        <rect x="1161" y="14" width="69" height="26" rx="13" stroke="#885349"/>
        <text x="1183" y="32" fill="#F27C68" font-size="13" font-weight="700">Delete</text>
      </g>
    </g>
  </g>
</svg>
